<?xml version="1.0" encoding="utf-8"?>
<!-- Generator: Adobe Illustrator 28.1.0, SVG Export Plug-In . SVG Version: 6.00 Build 0)  -->
<svg version="1.1" xmlns="http://www.w3.org/2000/svg" xmlns:xlink="http://www.w3.org/1999/xlink" x="0px" y="0px"
	 viewBox="0 0 269.7 129.4" style="enable-background:new 0 0 269.7 129.4;" xml:space="preserve">
<style type="text/css">
	.st0{fill:none;stroke:#000000;stroke-miterlimit:10;}
	.st1{fill:none;stroke:#000000;stroke-linejoin:bevel;stroke-miterlimit:10;}
	.st2{fill:none;stroke:#000000;stroke-width:0.75;stroke-miterlimit:10;}
	.st3{fill:none;stroke:#000000;stroke-width:2;stroke-miterlimit:10;}
	.st4{fill:none;stroke:#FF2500;stroke-miterlimit:10;}
	.st5{fill:#FF2500;}
	.st6{fill:none;stroke:#FFFFFF;stroke-miterlimit:10;}
</style>
<g id="Vrstva_2">
</g>
<g id="Vrstva_1">
	<g>
		<polyline class="st0" points="107.4,35.5 94.9,35.5 94.9,55.3 107.4,55.3 		"/>
		<polyline class="st0" points="138.6,35.5 147.1,35.5 147.1,55.3 134.6,55.3 		"/>
		<line class="st0" x1="107.9" y1="32" x2="107.9" y2="38.2"/>
		<line class="st0" x1="135.1" y1="51.4" x2="135.1" y2="57.7"/>
		<line class="st0" x1="107.9" y1="51.4" x2="107.9" y2="57.6"/>
		<polyline class="st1" points="113.2,54.7 117.2,45.1 121.4,35.3 128.4,54.4 		"/>
		<line class="st1" x1="124.9" y1="47" x2="117.1" y2="47"/>
		<line class="st1" x1="116.3" y1="55.1" x2="110.4" y2="55.1"/>
		<line class="st1" x1="131.4" y1="55.1" x2="125.5" y2="55.1"/>
		<line class="st1" x1="124.2" y1="35.1" x2="118.4" y2="35.1"/>
		<line class="st1" x1="138.4" y1="33" x2="138.4" y2="38.8"/>
		<g>
			<polyline class="st0" points="209.1,67.3 217.7,67.3 217.7,87.1 205.2,87.1 			"/>
			<line class="st0" x1="205.6" y1="83.2" x2="205.6" y2="89.4"/>
			<line class="st1" x1="209" y1="64.8" x2="209" y2="70.6"/>
		</g>
		<polyline class="st0" points="107,67.5 94.4,67.5 94.4,87.3 107,87.3 		"/>
		<rect x="155.6" y="67.3" class="st0" width="10.6" height="19.8"/>
		<rect x="173.5" y="67.2" class="st0" width="11.9" height="19.8"/>
		<polyline class="st0" points="136.3,87.3 136.3,75.4 136.3,67.5 148.8,67.5 148.8,86.8 		"/>
		<line class="st0" x1="107.4" y1="63.9" x2="107.4" y2="70.1"/>
		<line class="st0" x1="202.5" y1="63.9" x2="202.5" y2="70.1"/>
		<line class="st0" x1="202.5" y1="83.3" x2="202.5" y2="89.6"/>
		<line class="st0" x1="199.2" y1="73.2" x2="199.2" y2="79.4"/>
		<line class="st0" x1="107.4" y1="83.3" x2="107.4" y2="89.6"/>
		<polyline class="st1" points="112.8,86.6 116.8,77 121,67.2 127.9,86.3 		"/>
		<line class="st1" x1="124.5" y1="78.9" x2="116.6" y2="78.9"/>
		<line class="st1" x1="115.8" y1="87" x2="110" y2="87"/>
		<line class="st1" x1="130.9" y1="87" x2="125.1" y2="87"/>
		<line class="st1" x1="139.1" y1="87" x2="133.2" y2="87"/>
		<line class="st1" x1="151.9" y1="87" x2="146.1" y2="87"/>
		<line class="st1" x1="138.4" y1="67.5" x2="132.5" y2="67.5"/>
		<line class="st1" x1="175.7" y1="67.3" x2="169.8" y2="67.3"/>
		<line class="st1" x1="175.7" y1="87" x2="169.8" y2="87"/>
		<g>
			<rect x="179.1" y="35.4" class="st0" width="10.6" height="19.8"/>
			<rect x="197.1" y="35.3" class="st0" width="11.9" height="19.8"/>
			<line class="st1" x1="199.2" y1="35.3" x2="193.4" y2="35.3"/>
			<line class="st1" x1="199.2" y1="55.1" x2="193.4" y2="55.1"/>
		</g>
		<line class="st1" x1="123.8" y1="67" x2="117.9" y2="67"/>
		<line class="st0" x1="148.7" y1="75.6" x2="136.3" y2="75.6"/>
		<polyline class="st0" points="202.6,67.3 190,67.3 190,75.3 190,87.1 202.6,87.1 		"/>
		<line class="st0" x1="198.5" y1="76.7" x2="190" y2="76.7"/>
		<polyline class="st2" points="99.3,30.6 101.7,32.8 104.2,30.6 		"/>
		<polyline class="st2" points="98.8,61.5 101.2,63.7 103.7,61.5 		"/>
		<polyline class="st2" points="194.1,61.5 196.5,63.7 199,61.5 		"/>
		<line class="st0" x1="235.9" y1="63.9" x2="235.9" y2="70.1"/>
		<line class="st0" x1="235.9" y1="83.3" x2="235.9" y2="89.6"/>
		<line class="st0" x1="232.7" y1="73.2" x2="232.7" y2="79.4"/>
		<polyline class="st0" points="236,67.3 223.5,67.3 223.5,75.3 223.5,87.1 236.1,87.1 		"/>
		<line class="st0" x1="232" y1="76.7" x2="223.5" y2="76.7"/>
		<line class="st0" x1="165.1" y1="32" x2="165.1" y2="38.2"/>
		<line class="st0" x1="165.1" y1="51.4" x2="165.1" y2="57.6"/>
		<line class="st0" x1="161.8" y1="41.3" x2="161.8" y2="47.5"/>
		<polyline class="st0" points="165.2,35.4 152.6,35.4 152.6,43.4 152.6,55.2 165.2,55.2 		"/>
		<line class="st0" x1="161.2" y1="44.8" x2="152.6" y2="44.8"/>
		<rect x="30.1" y="36.4" class="st4" width="51.6" height="52.2"/>
		<path class="st4" d="M46.2,71.9L52,53.2l17.5-6l-8.5,9.3l4.6,16.7l8.6,2.6h-1.6H35.7C39.2,74.4,42.7,73.1,46.2,71.9z"/>
	</g>
</g>
</svg>
